<svg width="128" height="128" viewBox="0 0 128 128" fill="none" xmlns="http://www.w3.org/2000/svg">
<g clip-path="url(#clip0_301_2)">
<path fill-rule="evenodd" clip-rule="evenodd" d="M54.9653 98.816H69.3525V63.9957H78.9504L80.2219 51.9979H69.3525L69.3675 45.9904C69.3675 42.8629 69.6661 41.184 74.1547 41.184H80.1536V29.184H70.5536C59.0229 29.184 54.9653 35.0059 54.9653 44.7936V51.9979H47.7781V63.9979H54.9653V98.816ZM64 128C28.6549 128 0 99.3451 0 64C0 28.6528 28.6549 0 64 0C99.3451 0 128 28.6528 128 64C128 99.3451 99.3451 128 64 128Z" fill="#3A589B"/>
</g>
<defs>
<clipPath id="clip0_301_2">
<rect width="128" height="128" fill="white"/>
</clipPath>
</defs>
</svg>
