<svg width="128" height="128" viewBox="0 0 128 128" fill="none" xmlns="http://www.w3.org/2000/svg">
<g clip-path="url(#clip0_301_4)">
<path fill-rule="evenodd" clip-rule="evenodd" d="M99.9189 94.1589V69.1733C99.9189 55.7867 92.7723 49.5573 83.2448 49.5573C75.5563 49.5573 72.1109 53.7877 70.1909 56.7552V50.5813H55.7056C55.8976 54.6709 55.7056 94.1589 55.7056 94.1589H70.1909V69.8219C70.1909 68.5227 70.2848 67.2213 70.6688 66.2912C71.7141 63.6885 74.0971 60.9941 78.0971 60.9941C83.3408 60.9941 85.4357 64.9899 85.4357 70.8459V94.1611L99.9189 94.1589ZM40.4459 44.6336C45.4955 44.6336 48.6421 41.2843 48.6421 37.1008C48.5483 32.8277 45.4955 29.5744 40.5419 29.5744C35.5883 29.5744 32.3477 32.8256 32.3477 37.1008C32.3477 41.2843 35.4923 44.6336 40.3541 44.6336H40.4459ZM64 128C28.6549 128 0 99.3451 0 64C0 28.6528 28.6549 0 64 0C99.3451 0 128 28.6528 128 64C128 99.3451 99.3451 128 64 128ZM47.6885 94.1589V50.5813H33.2053V94.1589H47.6885Z" fill="#007AB9"/>
</g>
<defs>
<clipPath id="clip0_301_4">
<rect width="128" height="128" fill="white"/>
</clipPath>
</defs>
</svg>
