<svg xmlns="http://www.w3.org/2000/svg" xmlns:xlink="http://www.w3.org/1999/xlink" width="73.189" height="73.189" viewBox="0 0 73.189 73.189">
  <defs>
    <filter id="Oval" x="0" y="0" width="73.189" height="73.189" filterUnits="userSpaceOnUse">
      <feOffset dy="3" input="SourceAlpha"/>
      <feGaussianBlur stdDeviation="3" result="blur"/>
      <feFlood flood-opacity="0.161"/>
      <feComposite operator="in" in2="blur"/>
      <feComposite in="SourceGraphic"/>
    </filter>
  </defs>
  <g id="Group_153" data-name="Group 153" transform="translate(9 6)">
    <g transform="matrix(1, 0, 0, 1, -9, -6)" filter="url(#Oval)">
      <circle id="Oval-2" data-name="Oval" cx="27.595" cy="27.595" r="27.595" transform="translate(9 6)" fill="#2aa3ef"/>
    </g>
    <path id="Twitter" d="M22.642,2.178a9.318,9.318,0,0,1-2.668.732A4.659,4.659,0,0,0,22.016.34a9.283,9.283,0,0,1-2.95,1.126,4.648,4.648,0,0,0-8.036,3.178A4.7,4.7,0,0,0,11.15,5.7,13.186,13.186,0,0,1,1.577.85a4.649,4.649,0,0,0,1.437,6.2,4.607,4.607,0,0,1-2.1-.581v.059a4.646,4.646,0,0,0,3.726,4.553,4.638,4.638,0,0,1-1.224.163,4.569,4.569,0,0,1-.874-.084,4.652,4.652,0,0,0,4.34,3.226,9.332,9.332,0,0,1-5.77,1.987A9.363,9.363,0,0,1,0,16.31,13.145,13.145,0,0,0,7.121,18.4,13.125,13.125,0,0,0,20.337,5.183c0-.2-.005-.4-.013-.6a9.441,9.441,0,0,0,2.318-2.4Z" transform="translate(16.274 18.396)" fill="#fff"/>
  </g>
</svg>
