<svg xmlns="http://www.w3.org/2000/svg" xmlns:xlink="http://www.w3.org/1999/xlink" width="73.189" height="73.189" viewBox="0 0 73.189 73.189">
  <defs>
    <filter id="Oval" x="0" y="0" width="73.189" height="73.189" filterUnits="userSpaceOnUse">
      <feOffset dy="3" input="SourceAlpha"/>
      <feGaussianBlur stdDeviation="3" result="blur"/>
      <feFlood flood-opacity="0.161"/>
      <feComposite operator="in" in2="blur"/>
      <feComposite in="SourceGraphic"/>
    </filter>
  </defs>
  <g id="Group_155" data-name="Group 155" transform="translate(9 6)">
    <g transform="matrix(1, 0, 0, 1, -9, -6)" filter="url(#Oval)">
      <circle id="Oval-2" data-name="Oval" cx="27.595" cy="27.595" r="27.595" transform="translate(9 6)" fill="#f52929"/>
    </g>
    <path id="Youtube" d="M12.736,19.812h0c-.066,0-6.655-.048-8.652-.27-.107-.025-.238-.044-.389-.066a3.571,3.571,0,0,1-2.421-1.15,6.774,6.774,0,0,1-1.01-2.792A45.1,45.1,0,0,1,0,10.987V8.87C0,6.6.261,4.3.264,4.277a6.159,6.159,0,0,1,1.01-2.792A3.47,3.47,0,0,1,3.744.322H3.75L3.821.315C7.336.048,12.682,0,12.736,0s5.4.048,8.915.315l.121.01A3.243,3.243,0,0,1,24.2,1.486a6.774,6.774,0,0,1,1.01,2.792c0,.023.264,2.325.264,4.593v2.117c0,2.221-.261,4.524-.264,4.547a6.776,6.776,0,0,1-1.01,2.792,3.47,3.47,0,0,1-2.471,1.164h-.005l-.071.006C18.135,19.808,12.79,19.812,12.736,19.812ZM9.662,5.358v9.771l8.345-4.773Z" transform="translate(14.859 17.689)" fill="#fff"/>
  </g>
</svg>
